<svg width="91" height="63" viewBox="0 0 91 63" fill="none" xmlns="http://www.w3.org/2000/svg">
<g clip-path="url(#clip0_4_291)">
<path d="M44.9434 0C45.0377 0.154476 45.1069 0.337516 45.2267 0.466823C47.4676 2.88739 49.474 5.50725 51.1273 8.42786C51.42 8.94498 51.7123 9.46449 51.964 10.0048C52.0288 10.1438 52.0034 10.4278 51.9098 10.5408C49.8352 13.0466 48.0871 15.7934 46.8033 18.8436C46.0485 20.6368 45.4902 22.5252 44.8437 24.3708C44.8111 24.4638 44.7804 24.5575 44.7153 24.75C44.4195 23.7766 44.1683 22.9025 43.8888 22.0389C43.1234 19.6741 42.1103 17.4279 40.8144 15.3537C39.7927 13.7185 38.6353 12.1799 37.5161 10.6164C37.3247 10.349 37.3458 10.156 37.4733 9.8971C38.4225 7.96875 39.5743 6.18372 40.8869 4.52696C42.0349 3.07788 43.2542 1.69371 44.4403 0.279201C44.4832 0.228007 44.5078 0.159104 44.542 0.061455C44.5431 0.0244514 44.574 0.00622055 44.6341 0.0143732C44.7792 0.0166317 44.8641 0.0107375 44.9491 0.00484329C44.9491 0.00484329 44.9419 0.00354434 44.9434 0Z" fill="#EBA89D"/>
<path d="M69.875 43.875C70.3479 43.2078 70.8191 42.5396 71.294 41.8737C72.9522 39.5487 74.1712 37.0291 75.2462 34.4417C75.3202 34.2634 75.6714 34.1004 75.9114 34.0758C77.1636 33.9477 78.4198 33.8259 79.678 33.7804C81.022 33.7317 82.3704 33.7493 83.7158 33.7792C84.4631 33.7959 85.2081 33.8967 86.0019 33.9581C86.0772 34.0604 86.1048 34.1643 86.125 34.3027C85.9386 34.6739 85.7121 34.9965 85.5885 35.3494C84.9381 37.2074 84.0781 38.9815 82.979 40.6461C82.2677 41.7235 81.433 42.7324 80.5747 43.7771C79.3514 43.6542 78.205 43.539 77.063 43.3955C75.3917 43.1854 73.7385 43.3451 72.0867 43.564C71.3486 43.6619 70.6122 43.771 69.875 43.875Z" fill="#F9E6C5"/>
<path d="M15.5493 30.5681C15.2728 28.6085 14.9498 26.6985 14.7562 24.7746C14.624 23.4613 14.5918 22.1242 14.6592 20.8055C14.7591 18.8545 14.989 16.9106 15.1586 14.9632C15.186 14.6483 15.3465 14.5841 15.615 14.6465C18.7679 15.3792 21.802 16.4274 24.65 18.0448C26.6989 19.2084 28.614 20.5572 30.4244 22.0741C30.8357 22.4188 31.2369 22.7808 31.6068 23.1711C31.7248 23.2955 31.7843 23.5411 31.7727 23.7246C31.633 25.9398 31.3024 28.1583 31.3579 30.367C31.4713 34.8778 32.3413 39.2598 34.063 43.4351C34.1138 43.5584 34.1483 43.689 34.106 43.875C33.9341 43.6744 33.771 43.4647 33.5888 43.2747C30.507 40.0605 26.9653 37.5355 22.9501 35.7219C20.9065 34.7988 18.8022 34.0721 16.6138 33.6068C16.4544 33.573 16.2485 33.3838 16.2045 33.2254C15.9647 32.3614 15.7688 31.4843 15.5493 30.5681Z" fill="#ECA89E"/>
<path d="M75.7596 14.625C75.8732 15.5254 76.001 16.4288 76.0947 17.336C76.3171 19.49 76.4873 21.6468 76.2841 23.815C76.1415 25.3365 76.071 26.8694 75.8437 28.3769C75.6006 29.9893 75.2214 31.5803 74.8704 33.1733C74.8337 33.3398 74.6043 33.5452 74.4337 33.583C69.2276 34.7357 64.5552 37.0497 60.4474 40.5603C59.3385 41.5081 58.337 42.5915 57.2858 43.6123C57.1775 43.7175 57.0666 43.8197 56.875 43.875C57.1383 43.1984 57.4203 42.5289 57.6614 41.8439C58.5369 39.356 59.1583 36.8007 59.439 34.1658C59.5729 32.9083 59.6855 31.6445 59.7235 30.3808C59.7901 28.1606 59.6524 25.9481 59.3269 23.7495C59.3066 23.6126 59.3655 23.4053 59.4612 23.3159C63.9362 19.1371 69.0952 16.2932 74.9372 14.7912C75.1832 14.728 75.4342 14.6856 75.7252 14.6302C75.7674 14.6268 75.7582 14.6297 75.7596 14.625Z" fill="#EBA89D"/>
<path d="M60.1181 41.023C62.3772 39.1144 64.7779 37.4959 67.4114 36.2423C69.5869 35.2067 71.8243 34.344 74.1727 33.7986C74.3512 33.7571 74.5411 33.7662 74.75 33.75C70.9084 45.88 59.984 55.5935 47.125 56.25C47.5079 55.8917 47.8316 55.6164 48.1239 55.3104C49.3352 54.0421 50.6467 52.8513 51.7154 51.4689C53.1565 49.6049 54.3173 47.5182 55.7689 45.6636C56.9662 44.134 58.411 42.8027 59.7473 41.3847C59.857 41.2683 59.9762 41.1611 60.1181 41.023Z" fill="#F5CDBB"/>
<path d="M43.3659 56.1753C40.1214 55.9311 37.0617 55.121 34.111 53.8702C31.8143 52.8966 29.6985 51.6068 27.7393 50.0764C25.8697 48.6161 24.1337 47.0112 22.6097 45.1697C21.1439 43.3986 19.8831 41.4969 18.8269 39.4722C17.8809 37.6586 17.1024 35.7573 16.25 33.8947C16.2958 33.8464 16.3417 33.7982 16.3875 33.75C16.8512 33.8734 17.3167 33.9905 17.7784 34.1211C21.364 35.1351 24.7354 36.6341 27.8434 38.693C30.2594 40.2936 32.4788 42.162 34.3492 44.3683C35.6349 45.8849 36.6065 47.6643 37.7972 49.2675C38.8919 50.7414 40.0598 52.1645 41.2568 53.557C42.0474 54.4766 42.9465 55.3025 43.875 56.25C43.6565 56.2207 43.5319 56.204 43.3659 56.1753Z" fill="#F5CDBB"/>
<path d="M82.9577 45C85.2624 45.7522 87.3764 46.894 89.3675 48.2838C89.8408 48.6141 90.2926 48.9765 90.7653 49.3077C91.081 49.5289 91.0622 49.7175 90.8045 49.9846C90.0601 50.7562 89.3334 51.5458 88.6049 52.3331C88.4884 52.4589 88.3979 52.6098 88.3017 52.7874C88.3079 52.8257 88.3046 52.816 88.3094 52.8176C88.1091 52.9355 87.8726 53.0164 87.7035 53.173C83.665 56.9139 79.1357 59.8137 73.9268 61.5348C71.7864 62.242 69.5922 62.7405 67.3417 62.8645C65.6085 62.96 63.8593 63.0715 62.1346 62.9396C58.7843 62.6832 55.532 61.8965 52.4684 60.4476C51.1928 59.8443 49.9737 59.1168 48.75 58.4114C49.0202 58.4945 49.2706 58.609 49.5182 58.7296C51.9914 59.9345 54.6284 60.3973 57.338 60.5075C58.218 60.5433 59.1031 60.5578 59.9812 60.5029C61.1213 60.4316 62.2711 60.3604 63.3914 60.149C66.0563 59.6463 68.5968 58.7447 70.9644 57.3803C73 56.2072 74.9363 54.8713 76.5667 53.1564C78.0048 51.6436 79.368 50.0487 80.671 48.4125C81.5197 47.3468 82.2012 46.1423 82.9577 45Z" fill="#EBA89E"/>
<path d="M40.625 58.6476C39.5264 59.2674 38.455 59.9499 37.3233 60.4939C35.0674 61.5784 32.6829 62.2559 30.2364 62.656C28.1969 62.9894 26.1464 63.0767 24.0741 62.9342C21.5605 62.7612 19.118 62.2719 16.7304 61.4671C14.3222 60.6552 12.0403 59.5363 9.8515 58.2059C6.51469 56.1778 3.60882 53.5894 0.959604 50.668C0.646122 50.3223 0.361432 49.9477 0 49.5098C2.35215 47.4943 4.93789 45.9805 7.84806 45C8.88938 46.5064 9.86287 47.9942 10.8716 49.4552C11.915 50.9665 13.1244 52.3168 14.4605 53.5566C16.8097 55.7365 19.3837 57.5173 22.3037 58.7387C25.0591 59.8914 27.9101 60.5477 30.8789 60.5416C32.1072 60.5391 33.3405 60.4631 34.5623 60.3277C36.2245 60.1436 37.8576 59.7873 39.4124 59.1051C39.8082 58.9314 40.2204 58.7989 40.625 58.6476Z" fill="#ECA99E"/>
<path d="M54.7807 15.2725C55.7228 17.8195 56.3944 20.4155 56.8685 23.0746C56.8977 23.2383 56.8251 23.4796 56.7221 23.6083C55.5911 25.0217 54.397 26.3764 53.3142 27.8329C51.8211 29.8413 50.6053 32.0651 49.7215 34.4753C49.0989 36.1731 48.6183 37.937 48.117 39.6865C47.8779 40.5209 47.923 40.5367 47.1201 40.4812C46.1819 40.4163 46.1963 40.4129 46.0027 39.3916C45.5057 36.771 45.4214 34.1115 45.5596 31.4604C45.7534 27.7433 46.3806 24.1054 47.6931 20.6496C48.8268 17.6645 50.3158 14.9103 52.1495 12.3872C52.3984 12.0448 52.6679 11.7207 53.0358 11.25C53.6454 12.6499 54.2083 13.9424 54.7807 15.2725Z" fill="#F5CDBB"/>
<path d="M42.8421 37.607C41.7308 33.8424 39.9423 30.503 37.6517 27.4565C36.8535 26.395 35.9804 25.3952 35.1277 24.3801C34.9271 24.1412 34.6855 23.9319 34.4365 23.7485C34.0839 23.4887 34.0907 23.1602 34.1684 22.7716C34.6366 20.4286 35.2435 18.1249 36.101 15.909C36.6953 14.3732 37.4124 12.8901 38.1332 11.25C38.7112 11.9956 39.2147 12.6012 39.6724 13.2431C41.808 16.2381 43.4622 19.5045 44.5962 23.0564C44.868 23.9079 45.202 24.7597 45.3141 25.6386C45.4095 26.387 45.2367 27.1757 45.1649 27.9448C45.0567 29.1048 44.8928 30.2607 44.828 31.423C44.7699 32.4666 44.8198 33.5166 44.8111 34.5636C44.7959 36.3857 45.0545 38.1723 45.4203 39.946C45.4466 40.0734 45.4683 40.2019 45.5 40.3721C44.8865 40.4238 44.3166 40.4913 43.7459 40.5C43.6553 40.5014 43.518 40.2511 43.4759 40.0951C43.2562 39.2822 43.0604 38.4621 42.8421 37.607Z" fill="#F5CEBC"/>
<path d="M70.3065 44.5699C71.0918 44.4304 71.8453 44.3025 72.6005 44.1878C74.2905 43.9312 75.982 43.744 77.6919 43.9902C78.8604 44.1585 80.0332 44.2935 81.25 44.4441C81.0042 44.8752 80.7407 45.3308 80.4162 45.7318C78.231 48.4322 75.8053 50.8593 72.9964 52.8397C69.3761 55.3922 65.4315 57.1324 61.137 57.9332C59.8025 58.182 58.4358 58.2361 57.086 58.3992C54.2523 58.7417 51.5066 58.1548 48.75 57.4901C49.3606 57.3858 49.9713 57.2828 50.5817 57.177C53.0947 56.7417 55.5133 55.9773 57.8416 54.8904C60.2194 53.7805 62.4282 52.3768 64.4714 50.6867C66.5111 48.9995 68.3599 47.1087 69.9486 44.9442C70.044 44.8143 70.1659 44.7059 70.3065 44.5699Z" fill="#F5D7B3"/>
<path d="M20.5952 44.4603C21.711 45.7766 22.7625 47.1634 23.9568 48.3934C25.9863 50.4834 28.2709 52.2309 30.7387 53.7065C32.7069 54.8834 34.7884 55.7745 36.9519 56.4135C38.2982 56.8111 39.7014 56.9911 41.0798 57.265C41.4671 57.342 41.8567 57.4056 42.2453 57.4754C42.2469 57.5302 42.2484 57.585 42.25 57.6399C40.5326 57.8883 38.819 58.1732 37.0968 58.3764C34.5031 58.6824 31.9424 58.3864 29.3877 57.8589C26.5129 57.2654 23.7786 56.253 21.1864 54.8352C18.7549 53.5054 16.492 51.9 14.4546 49.9299C12.7357 48.2678 11.2108 46.4291 9.75 44.4662C10.8529 44.2366 11.941 43.9816 13.0382 43.9237C15.5718 43.7901 18.099 43.9192 20.5952 44.4603Z" fill="#F6D9B5"/>
<path d="M61.9999 3.375C62.7011 4.75843 63.4323 6.1322 64.0936 7.53834C64.9777 9.41847 65.575 11.3988 66.0022 13.427C66.2221 14.471 66.3786 15.5282 66.6031 16.5712C66.6716 16.8894 66.5803 17.0232 66.3142 17.1534C64.1752 18.1995 62.2105 19.5204 60.3127 20.9415C59.6426 21.4432 59.0046 21.9871 58.3665 22.5C57.7025 20.3171 57.1518 18.1425 56.3737 16.0511C55.5966 13.9627 54.5919 11.9574 53.625 9.77567C54.2447 9.17032 54.9334 8.38295 55.7377 7.73712C57.1606 6.5946 58.6411 5.52088 60.124 4.4546C60.6885 4.04869 61.326 3.74263 61.9693 3.38416C62.0083 3.37725 61.9988 3.37976 61.9999 3.375Z" fill="#F9E6C5"/>
<path d="M31.5299 21.5502C29.7391 20.3152 27.981 19.1008 26.2104 17.904C25.8329 17.6488 25.4299 17.4047 25.0024 17.2498C24.4324 17.0433 24.3277 16.6715 24.3915 16.1558C24.6694 13.9082 25.0996 11.6842 25.9545 9.57865C26.7518 7.61465 27.7109 5.71236 28.6062 3.78615C28.7911 3.38828 28.9989 3.23901 29.4971 3.51896C32.3502 5.12233 34.8904 7.09626 37.1664 9.40588C37.4939 9.73826 37.3746 10.0245 37.2217 10.3309C37.005 10.7653 36.7503 11.1817 36.5249 11.6122C35.1704 14.1995 34.164 16.9142 33.4011 19.7164C33.1578 20.6099 32.933 21.5082 32.6748 22.5C32.2492 22.1483 31.9037 21.8627 31.5299 21.5502Z" fill="#F9E6C5"/>
<path d="M42.2145 52.875C41.5595 52.2084 40.8807 51.5627 40.2534 50.8716C37.534 47.8753 35.6904 44.3782 34.3225 40.6245C33.536 38.4664 33.0007 36.2381 32.7771 33.9543C32.6197 32.3472 32.5023 30.7296 32.5 29.1165C32.4981 27.7492 32.6861 26.3816 32.7935 25.0145C32.7981 24.9557 32.838 24.8996 32.8991 24.75C33.3594 25.1937 33.8011 25.5789 34.1955 26.0064C36.5995 28.6128 38.674 31.4522 40.0943 34.6933C40.8478 36.4129 41.3786 38.2272 42.0096 39.9988C42.1247 40.3221 41.9717 40.3969 41.6629 40.4727C40.6069 40.7319 39.5268 40.9524 38.5255 41.3555C37.4475 41.7896 37.3099 42.4042 37.7865 43.4545C38.7952 45.6776 39.7673 47.9171 40.8013 50.1286C41.2235 51.0315 41.7672 51.8792 42.25 52.7991C42.2444 52.8462 42.2145 52.875 42.2145 52.875Z" fill="#E28E8A"/>
<path d="M48.75 52.8395C49.8403 50.5197 50.928 48.1986 52.0228 45.8807C52.3147 45.2629 52.6301 44.6557 52.9313 44.042C53.0415 43.8176 53.1662 43.5963 53.2425 43.3606C53.5453 42.4261 53.3766 41.9101 52.4443 41.5578C51.392 41.1601 50.2803 40.9123 49.1938 40.6016C49.0702 40.5662 48.9423 40.5455 48.7606 40.5058C50.2396 34.3067 53.4595 29.1557 58.0036 24.75C58.0555 24.7607 58.1074 24.7715 58.1594 24.7822C58.2595 25.7453 58.4053 26.7062 58.452 27.6716C58.6745 32.2762 58.1403 36.784 56.5059 41.1315C54.8941 45.419 52.6401 49.3255 49.2689 52.5523C49.1481 52.6679 49.0156 52.7719 48.8372 52.875C48.7858 52.8687 48.75 52.8395 48.75 52.8395Z" fill="#E28E8A"/>
<path d="M21.125 43.8643C18.6608 43.3976 16.1613 43.2778 13.6555 43.4019C12.5703 43.4556 11.4942 43.6924 10.3868 43.875C9.88289 43.2571 9.3717 42.6323 8.9358 41.9589C7.72032 40.0812 6.62224 38.1365 5.81637 36.0436C5.48347 35.179 5.20859 34.292 4.9157 33.4124C4.82567 33.1421 4.86706 32.9716 5.22347 32.9274C7.13384 32.6905 9.04196 32.5012 10.9699 32.7248C12.0925 32.855 13.2204 32.9388 14.3456 33.0472C14.6524 33.0768 14.9728 33.0758 15.2587 33.1724C15.4547 33.2387 15.6782 33.4161 15.7589 33.6007C16.425 35.1261 16.9527 36.7222 17.7321 38.1854C18.7621 40.1192 19.982 41.9522 21.125 43.8643Z" fill="#F9E6C5"/>
<path d="M41.9965 57.8761C41.5434 58.024 41.1174 58.1457 40.7084 58.3052C39.1014 58.9321 37.4135 59.2593 35.6956 59.4285C34.4329 59.5528 33.1582 59.6227 31.8887 59.625C28.8203 59.6306 25.8738 59.0277 23.026 57.9687C20.0081 56.8466 17.3478 55.2106 14.9198 53.2079C13.5389 52.069 12.2889 50.8285 11.2105 49.44C10.168 48.0978 9.16183 46.731 8.125 45.3438C9.36968 44.8259 9.36052 44.8328 10.1756 45.7832C15.12 51.5488 21.3909 55.4008 29.1108 57.1064C30.6326 57.4425 32.2118 57.5518 33.8195 57.7806C33.8744 57.7953 33.92 57.8034 33.92 57.8034L33.9535 57.7701C35.6084 57.7344 37.2726 57.788 38.9154 57.6377C40.5373 57.4894 42.1376 57.1348 43.875 56.8498C43.2027 57.2208 42.617 57.544 41.9965 57.8761Z" fill="#E28E8A"/>
<path d="M82.875 45.333C82.1454 46.3982 81.4564 47.5048 80.5985 48.4839C79.2813 49.9871 77.9033 51.4524 76.4495 52.8422C74.8014 54.4177 72.844 55.645 70.7863 56.7228C68.3929 57.9763 65.8248 58.8046 63.1308 59.2664C61.9983 59.4606 60.8361 59.526 59.6835 59.5915C58.7959 59.642 57.9011 59.6287 57.0116 59.5958C54.2724 59.4945 51.6068 59.0693 49.1067 57.9624C48.8564 57.8516 48.6033 57.7464 48.3104 57.642C47.8878 57.4257 47.5064 57.2059 47.125 56.9862C47.1387 56.9467 47.1525 56.9071 47.1662 56.8676C47.2884 56.8768 47.4167 56.8666 47.5319 56.8978C50.6279 57.738 53.7971 57.996 56.9988 57.8096C60.7245 57.5927 64.2814 56.7004 67.7013 55.3117C70.6656 54.1081 73.3569 52.5064 75.8165 50.5693C77.7838 49.0198 79.5846 47.3116 81.1489 45.4034C81.4599 45.024 81.7271 44.8835 82.1928 45.1066C82.394 45.203 82.6234 45.2486 82.875 45.333Z" fill="#E28E8A"/>
<path d="M47.2875 50.8495C47.277 50.8964 47.2665 50.9432 47.2272 51.0544C46.9479 52.0432 46.6975 52.9678 46.4249 53.9025C46.4045 53.9519 46.4062 53.9911 46.408 54.0304C46.4215 53.9848 46.4351 53.9393 46.4773 53.8722C46.8874 52.9558 47.269 52.061 47.6506 51.1661C47.6951 51.0567 47.7396 50.9472 47.8086 50.785C47.8463 50.6983 47.8595 50.6644 47.8727 50.6305C48.6666 48.5959 49.4605 46.5612 50.2544 44.5266C50.3297 44.5581 50.4051 44.5896 50.4804 44.6211C50.0453 46.2315 49.4322 47.7754 48.8042 49.3143C48.179 50.8465 47.5597 52.3814 47.0422 53.9814C47.1569 53.8345 47.2781 53.6927 47.3854 53.5399C48.5827 51.8362 49.2912 49.8755 50.0172 47.9206C50.3983 46.8944 50.8266 45.8872 51.26 44.8843C51.4111 44.5346 51.6415 44.2235 51.8356 43.8947C51.8904 43.9249 51.9452 43.9551 52 43.9853C51.8274 44.4187 51.6551 44.8523 51.4821 45.2855C50.6641 47.334 49.9307 49.4271 49.002 51.4172C48.2025 53.1302 47.2113 54.7473 45.816 56.0265C45.5358 56.2833 45.3583 56.3505 45.048 56.0585C43.6514 54.7444 42.7397 53.06 41.9577 51.3184C40.9244 49.0172 40.0329 46.6438 39.0837 44.3C39.0399 44.1918 39.0272 44.0693 39 43.9534C39.0424 43.9273 39.0847 43.9011 39.1271 43.875C39.3079 44.1537 39.5349 44.4107 39.6613 44.715C40.2045 46.0224 40.6844 47.3602 41.2509 48.6555C41.9313 50.2108 42.6741 51.7354 43.3966 53.2696C43.4718 53.4292 43.5893 53.5676 43.6962 53.708C43.7222 53.7423 43.7842 53.7456 43.9453 53.8077C42.7267 50.6694 41.3491 47.695 40.4726 44.5202C40.5233 44.4921 40.5741 44.464 40.6248 44.436C40.6979 44.5524 40.793 44.6595 40.8405 44.7867C41.3805 46.233 41.9071 47.685 42.4504 49.1299C42.6897 49.7662 42.9589 50.3898 43.2451 51.0864C43.6461 51.9991 44.0165 52.8447 44.389 53.7207C44.4061 53.8034 44.4211 53.8557 44.4361 53.908C44.4584 53.8985 44.4806 53.8891 44.5028 53.8797C44.4728 53.809 44.4427 53.7383 44.4123 53.624C44.1686 52.706 43.9251 51.8317 43.6816 50.9573C43.1912 48.9905 42.7007 47.0237 42.2102 45.057C42.2817 45.0269 42.3532 44.9968 42.4247 44.9667C42.5339 45.2013 42.6821 45.4245 42.7464 45.6724C43.3755 48.0953 43.9897 50.5225 44.6109 52.9477C44.6755 53.1997 44.7577 53.4466 44.8318 53.6959C44.8742 53.6862 44.9166 53.6764 44.9591 53.6667C44.6945 50.8313 44.4298 47.9958 44.1652 45.1604C44.2464 45.1492 44.3277 45.138 44.4089 45.1268C44.7275 46.038 44.6665 47.0282 44.7985 47.9756C44.9379 48.9757 45.0116 49.9863 45.1054 50.9933C45.1963 51.9696 45.2762 52.9471 45.4294 53.9234C45.8855 50.9958 45.975 48.0245 46.4721 45.1139C46.5573 45.1237 46.6426 45.1335 46.7278 45.1432C46.5519 48.0296 46.1943 50.9012 45.9277 53.7802C45.9755 53.7911 46.0233 53.8021 46.0711 53.813C46.8583 50.8562 47.6456 47.8995 48.4329 44.9427C48.5106 44.9584 48.5883 44.9742 48.666 44.99C48.6548 45.2048 48.678 45.4294 48.627 45.6328C48.2805 47.0132 47.9174 48.3888 47.5624 49.7667C47.5179 49.9393 47.4891 50.1165 47.432 50.354C47.4012 50.4521 47.3915 50.4878 47.3819 50.5234C47.3741 50.566 47.3664 50.6086 47.3375 50.7004C47.293 50.7784 47.2834 50.8118 47.2875 50.8495ZM43.9475 53.9212L43.935 53.9525C43.935 53.9525 43.9637 53.9449 43.9475 53.9212Z" fill="#CFAD6D"/>
<path d="M44.1046 44.9993C42.662 44.9551 41.26 44.8007 39.9741 44.4179C39.5994 44.3064 39.3192 44.0929 39 43.9041C39.0044 43.882 39.0163 43.875 39.0163 43.875C40.1897 44.2617 41.4515 44.505 42.7982 44.5904C45.4867 44.7608 48.1538 44.7313 50.753 44.2455C51.1596 44.1695 51.536 44.0415 51.9615 43.9375C51.9966 43.9375 52 43.9393 52 43.9393C51.8179 44.0695 51.6777 44.2347 51.4464 44.3238C50.5562 44.6664 49.5028 44.751 48.4811 44.8856C47.0929 45.0685 45.6852 44.9707 44.2193 44.9961C44.1365 44.9967 44.1206 44.998 44.1046 44.9993Z" fill="#CFAD6D"/>
<path d="M47.125 51.781C46.6428 52.1397 46.1123 52.499 45.5416 52.8668C45.5013 52.8753 45.5 52.875 45.5 52.875C45.8482 52.5038 46.1964 52.1326 46.5781 51.75C46.7666 51.7529 46.9216 51.7672 47.125 51.781Z" fill="#F9E6C5"/>
<path d="M44.417 51.75C44.8124 52.1054 45.1607 52.4675 45.5 52.8499C45.4911 52.8702 45.4729 52.875 45.4729 52.875C44.9431 52.5249 44.4133 52.1747 43.875 51.8082C44.0343 51.7801 44.2021 51.7684 44.417 51.75Z" fill="#F9E6C5"/>
<path d="M41.8444 43.8182C41.1769 43.9701 40.5577 43.8934 40.6309 42.6231C40.6539 42.2243 41.266 41.8054 41.6472 41.6321C41.8092 41.5584 42.2385 42.0747 42.2491 42.3542C42.2664 42.8119 42.041 43.2952 41.8444 43.8182Z" fill="#CFAD6D"/>
<path d="M49.4681 41.625C49.8209 42.1446 50.0979 42.6671 50.375 43.1896C49.9896 43.437 49.6103 43.7943 49.2158 43.8742C49.0703 43.9037 48.7213 43.0817 48.7519 42.986C48.9154 42.4744 49.1695 42.0696 49.4681 41.625Z" fill="#CFAD6D"/>
</g>
<defs>
<clipPath id="clip0_4_291">
<rect width="91" height="63" fill="white"/>
</clipPath>
</defs>
</svg>
